<?xml version="1.0" encoding="UTF-8"?>
<!DOCTYPE svg PUBLIC "-//W3C//DTD SVG 1.1//EN" "http://www.w3.org/Graphics/SVG/1.1/DTD/svg11.dtd">
<!-- Creator: CorelDRAW -->
<svg xmlns="http://www.w3.org/2000/svg" xml:space="preserve" width="2.82758in" height="2.83428in" version="1.1" style="shape-rendering:geometricPrecision; text-rendering:geometricPrecision; image-rendering:optimizeQuality; fill-rule:evenodd; clip-rule:evenodd"
viewBox="0 0 2877.11 2883.93"
 xmlns:xlink="http://www.w3.org/1999/xlink"
 xmlns:xodm="http://www.corel.com/coreldraw/odm/2003">
 <defs>
  <style type="text/css">
   <![CDATA[
    .str0 {stroke:black;stroke-width:54.27;stroke-linecap:round;stroke-linejoin:round;stroke-miterlimit:10}
    .fil0 {fill:none;fill-rule:nonzero}
   ]]>
  </style>
 </defs>
 <g id="Layer_x0020_1">
  <metadata id="CorelCorpID_0Corel-Layer"/>
  <g id="_105554476607936">
   <path class="fil0 str0" d="M148.79 964.91c0,0 584.51,4.15 745.26,647.08"/>
   <polyline class="fil0 str0" points="37.47,1299.57 295.56,1155.88 463.3,1426.18 595.93,1422.01 "/>
   <polyline class="fil0 str0" points="65.32,1125.6 246.26,1336.24 527.31,1264.76 595.5,1419.79 "/>
   <path class="fil0 str0" d="M1334.53 1796.37c0,0 289.45,247.76 475.91,361.88"/>
   <path class="fil0 str0" d="M1164.71 1921.62c0,0 97.4,261.67 186.47,459.26"/>
   <path class="fil0 str0" d="M1033.88 1896.57c0,0 72.41,542.73 428.61,815.54 0,0 67.11,-346.58 -60.93,-608.26"/>
   <path class="fil0 str0" d="M1061.72 1821.42c0,0 400.77,462.07 1185.68,645.73 0,0 -150.29,-250.49 -406.37,-506.57"/>
   <path class="fil0 str0" d="M1045 1604.32c0,0 417.49,434.22 1564.27,417.5 0,0 -217.12,-189.27 -501.05,-317.24"/>
   <path class="fil0 str0" d="M2296.06 1305.17c85.48,7.82 165.07,27.85 235.76,52.83l-223.21 146.12 410.32 -60.5c82.53,46.72 131.05,86.98 131.05,86.98 -924.63,375.37 -1737.08,-8.46 -1821.41,-50.6"/>
   <path class="fil0 str0" d="M2353.18 1039.33c0,0 205.99,38.96 334.02,-108.53 127.97,-147.55 -172.61,-233.82 -334.02,108.53z"/>
   <path class="fil0 str0" d="M1752.03 1200.75c0,0 62.58,-45.94 112.68,-110.61"/>
   <path class="fil0 str0" d="M2056.76 1152.73c0,0 81.4,39.68 215.02,39.68"/>
   <path class="fil0 str0" d="M2357.34 1029.57c0,0 -396.61,263.04 -1386.04,175.33"/>
   <path class="fil0 str0" d="M2390.79 758.2c0,0 365.39,-187.47 446.7,29.2 87.63,233.84 -442.55,776.57 -1845.31,526.1"/>
   <path class="fil0 str0" d="M1469.45 854.23c0,0 41.77,-45.94 83.55,-83.48"/>
   <path class="fil0 str0" d="M1770.1 787.4c0,0 108.53,29.29 204.55,41.77"/>
   <path class="fil0 str0" d="M880.78 1012.91c0,0 676.37,-150.29 1173.18,-329.86"/>
   <path class="fil0 str0" d="M1915.45 495.23c0,0 142.03,-43.07 349.25,-48.09l-45.8 160.77 206.77 -156.46c66.4,5.17 136.51,14.93 208.64,31.22 0,0 -250.47,651.32 -1728.47,596.99"/>
   <line class="fil0 str0" x1="1704.65" y1="363.03" x2="1879.99" y2= "398.27" />
   <path class="fil0 str0" d="M1392.95 490.99c0,0 301.51,-139.16 626.21,-255.08"/>
   <path class="fil0 str0" d="M1649.53 224.29c321.75,-137.6 702.71,-263.19 647.95,-57.99 -90.42,339.11 -1461.2,765.44 -1461.2,765.44"/>
   <line class="fil0 str0" x1="1234.26" y1="385.27" x2="1392.95" y2= "375.08" />
   <path class="fil0 str0" d="M1485.75 212.67c0,0 -278.34,185.6 -510.29,347.95"/>
   <path class="fil0 str0" d="M1253.78 166.3c0,0 185.53,-139.16 510.23,-139.16 0,0 -208.71,579.85 -1043.71,765.45"/>
   <path class="fil0 str0" d="M1212.02 62.38c0,0 -190.2,127.11 -329.37,289.45"/>
   <path class="fil0 str0" d="M557.96 676.59c0,0 347.88,-742.26 649.45,-626.28 0,0 185.54,115.99 -185.6,347.96 -338.4,211.51 -391.5,326.56 -391.5,326.56"/>
   <path class="fil0 str0" d="M48.52 1099.9c0,0 138.31,-307.32 508.07,-423.31 0,0 486.83,296.35 486.83,1037.17"/>
   <path class="fil0 str0" d="M882.94 2387.78c0,0 -37.61,54.39 -9.76,144.98"/>
   <path class="fil0 str0" d="M891.33 2856.8c0,0 -159.33,-189.83 -127.9,-367.54 24.33,-136.94 221.49,-136.86 234.84,1.5 0.15,1.37 0.37,2.66 0.37,4.02 1.15,152.66 -106.37,160.27 -107.31,362.02z"/>
   <path class="fil0 str0" d="M958.73 2190.05c0,46.79 -37.9,84.68 -84.69,84.68 -46.72,0 -84.63,-37.89 -84.63,-84.68 0,-46.73 37.9,-84.69 84.63,-84.69 46.79,0 84.69,37.96 84.69,84.69z"/>
   <line class="fil0 str0" x1="874.04" y1="2285.29" x2="874.04" y2= "2369.97" />
   <line class="fil0 str0" x1="874.04" y1="2010.12" x2="874.04" y2= "2094.8" />
   <path class="fil0 str0" d="M943.52 1800.96c0,46.81 -37.9,84.69 -84.7,84.69 -46.72,0 -84.68,-37.89 -84.68,-84.69 0,-46.72 37.96,-84.61 84.68,-84.61 46.8,0 84.7,37.89 84.7,84.61z"/>
   <path class="fil0 str0" d="M1056.99 1800.96c0,109.46 -88.71,198.17 -198.17,198.17 -109.44,0 -198.08,-88.71 -198.08,-198.17 0,-109.37 88.64,-198.09 198.08,-198.09 109.46,0 198.17,88.72 198.17,198.09z"/>
   <path class="fil0 str0" d="M701.51 1676.37c-200.1,-341.71 -569.73,-367.11 -656,-368.33 -10.19,-0.07 -18.37,-8.39 -18.37,-18.59l0 -176.7c69.61,1.5 523.93,-14.72 791.42,493.5"/>
  </g>
 </g>
</svg>
